<?xml version="1.0" encoding="utf-8"?>
<!-- Generator: Adobe Illustrator 21.0.0, SVG Export Plug-In . SVG Version: 6.00 Build 0)  -->
<svg version="1.1" id="Layer_1" xmlns="http://www.w3.org/2000/svg" xmlns:xlink="http://www.w3.org/1999/xlink" x="0px" y="0px"
	 viewBox="0 0 128 101" style="enable-background:new 0 0 128 101;" xml:space="preserve">
<style type="text/css">
	.st0{fill:#FFFFFF;}
	.st1{font-family:'ArialNarrow-Bold';}
	.st2{font-size:20.8001px;}
</style>
<g>
	<path class="st0" d="M46.7,3.6L46.7,3.6c-0.4,0-0.6,0.2-0.6,0.4v0.6v0.1v2.2c-0.4-0.2-0.9-0.3-0.9-0.3V3V3V2.4
		c0-0.2-0.2-0.4-0.5-0.4h-0.1C44.2,2,44,2.2,44,2.4V3V3v3.1C43.7,6.1,43.4,6,43,6V2.2V2.1V1.6c0-0.2-0.2-0.4-0.5-0.4h-0.1
		c-0.3,0-0.5,0.2-0.5,0.4v0.6v0.1v3.9c0,0,0,0,0,0c-0.3,0-0.6,0.1-0.8,0.2c0,0,0,0,0,0V3.4V3.3V2.7c0-0.2-0.2-0.4-0.5-0.4h-0.1
		c-0.3,0-0.5,0.2-0.5,0.4v0.6v0.1v4.3c-0.6,0.5-0.9,0.1-0.9,0.1l-0.7-1.5l-0.1-0.4c-0.1-0.2-0.4-0.3-0.7-0.3l-0.1,0
		c-0.3,0.1-0.5,0.3-0.4,0.5l0.2,0.6c0,0.1,0.1,0.1,0.1,0.2l0.8,1.8c0,0,0.9,4.3,5,4.1c4-0.2,4.2-3.9,4.2-3.9V4.6V4.6V4
		C47.3,3.8,47,3.6,46.7,3.6"/>
	<path class="st0" d="M38.9,34.8c0,0,3-4.6,7.7-7.1V13.8h-7.7V34.8z"/>
	<path class="st0" d="M83.5,41.3h7.6c0,0-2.2-15.9-26.3-16.6c-23.7,0.4-25.9,16.6-25.9,16.6h7.7c0,0,2.1-10.4,19-11.1
		C80.6,30.8,83.5,41.3,83.5,41.3"/>
	<path class="st0" d="M65,43.4h26.1v18.8h-7.3v-5.3c0,0-8.9,5.9-18.8,5.3c-10.1,0-25.2-5.3-26.1-18.8h7.7c0,0-1.1,13.1,19.1,13.4
		c14.1-0.6,16.6-8,16.6-8H65V43.4z"/>
</g>
<text transform="matrix(1.28 0 0 1 -2.1109 81.6465)"><tspan x="0" y="0" class="st0 st1 st2">INNOVATIVE</tspan><tspan x="16.6" y="18.6" class="st0 st1 st2">GLOVE</tspan><tspan x="75.8" y="18.6" class="st0 st1 st2">S</tspan></text>
</svg>
